<svg xmlns="http://www.w3.org/2000/svg" viewBox="0 0 56 56"><path d="M40 0c-8.822 0-16 7.178-16 16 0 3.285.998 6.34 2.702 8.884L.293 51.293a.999.999 0 101.414 1.414L6 48.414l7.293 7.293a.997.997 0 001.414 0 .999.999 0 000-1.414L7.414 47 11 43.414l5.293 5.293a.997.997 0 001.414 0 .999.999 0 000-1.414L12.414 42 16 38.414l7.293 7.293a.997.997 0 001.414 0 .999.999 0 000-1.414L17.414 37l10.522-10.522C30.872 29.853 35.186 32 40 32c8.822 0 16-7.178 16-16S48.822 0 40 0zm0 30c-7.72 0-14-6.28-14-14S32.28 2 40 2s14 6.28 14 14-6.28 14-14 14z"/></svg>